<?xml version="1.0" encoding="utf-8"?>
<!-- Generator: Adobe Illustrator 16.0.4, SVG Export Plug-In . SVG Version: 6.00 Build 0)  -->
<!DOCTYPE svg PUBLIC "-//W3C//DTD SVG 1.1//EN" "http://www.w3.org/Graphics/SVG/1.1/DTD/svg11.dtd">
<svg version="1.1" id="Ebene_1" xmlns="http://www.w3.org/2000/svg" xmlns:xlink="http://www.w3.org/1999/xlink" x="0px" y="0px"
	 width="800px" height="296px" viewBox="0 0 800 296" enable-background="new 0 0 800 296" xml:space="preserve">
<g>
	<defs>
		<rect id="SVGID_1_" width="800" height="296"/>
	</defs>
	<clipPath id="SVGID_2_">
		<use xlink:href="#SVGID_1_"  overflow="visible"/>
	</clipPath>
</g>
<g>
	<defs>
		<rect id="SVGID_3_" width="800" height="296"/>
	</defs>
	<clipPath id="SVGID_4_">
		<use xlink:href="#SVGID_3_"  overflow="visible"/>
	</clipPath>
	<path clip-path="url(#SVGID_4_)" fill="#FFFFFF" d="M143.973,272.714c-68.341,0-123.941-55.6-123.941-123.94
		c0-68.341,55.6-123.941,123.941-123.941s123.941,55.6,123.941,123.941C267.914,217.114,212.314,272.714,143.973,272.714"/>
	<path clip-path="url(#SVGID_4_)" fill="#1D1D1B" d="M143.973,26.832c67.346,0,121.941,54.595,121.941,121.941
		c0,67.347-54.595,121.941-121.941,121.941S22.032,216.12,22.032,148.773C22.032,81.427,76.627,26.832,143.973,26.832
		 M143.973,22.832c-33.64,0-65.267,13.1-89.054,36.887c-23.787,23.787-36.887,55.414-36.887,89.054
		c0,33.641,13.1,65.267,36.887,89.055c23.787,23.787,55.414,36.886,89.054,36.886s65.267-13.099,89.054-36.886
		c23.787-23.788,36.887-55.414,36.887-89.055c0-33.64-13.1-65.267-36.887-89.054C209.24,35.932,177.613,22.832,143.973,22.832"/>
	<path clip-path="url(#SVGID_4_)" fill="#FFFFFF" d="M122.523,97.736c-0.426,0.38-5.835,2.385-1.244,1.136
		c0.332,0.782,0.47,5.049,0.47,5.049l2.501,16.844c5.21-10.909,7.384-26.127,7.527-30.37l-4.133,2.989
		C125.847,94.844,124.136,96.296,122.523,97.736"/>
	<path clip-path="url(#SVGID_4_)" fill="#FFFFFF" d="M175.746,77.727c-0.818-2.598-5.144-22.619-33.501-22.005
		c-23.686,0.512-38.088,11.717-38.088,11.717L61.372,68.64c0,0,22.902,5.599,24.83,10.831
		c-56.636,73.265,18.006,112.977,18.006,112.977l8.143-12.796c0,0-43.268-33.599,8.929-80.779l13.092-11.924
		c17.886,6.454,23.658,5.388,35.526-0.446l-18.358-8.513C151.54,77.989,161.426,72.151,175.746,77.727"/>
	<path clip-path="url(#SVGID_4_)" fill="#0F519D" d="M175.452,77.791c-1.941-6.655-6.247-12.625-11.899-16.519
		c-5.679-3.937-12.662-5.553-19.519-5.509c-6.913,0.059-13.85,1.122-20.453,3.124c-3.304,1.005-6.535,2.238-9.643,3.713
		c-1.556,0.731-3.081,1.524-4.562,2.381c-1.464,0.845-2.963,1.797-4.216,2.751c-0.275,0.21-0.594,0.322-0.915,0.343h-0.004
		l-42.756,2.774l0.38-4.365c2.295,0.51,4.515,1.067,6.757,1.674c2.236,0.608,4.463,1.265,6.682,2.004
		c2.219,0.746,4.432,1.548,6.642,2.574c1.106,0.52,2.211,1.085,3.328,1.826c0.558,0.375,1.121,0.79,1.69,1.336
		c0.556,0.546,1.168,1.214,1.606,2.316c0.346,0.869,0.162,1.817-0.396,2.489l-0.064,0.075c-6.392,7.641-11.789,16.042-15.801,24.945
		c-3.886,8.94-6.287,18.471-6.113,28.124c0.089,4.816,0.828,9.62,2.106,14.308c0.649,2.342,1.452,4.649,2.389,6.909
		c0.92,2.269,1.969,4.493,3.143,6.661c2.368,4.324,5.134,8.477,8.284,12.358c3.141,3.881,6.606,7.569,10.425,10.854l-0.34,0.494
		c-4.382-2.685-8.334-5.996-12.003-9.619c-3.643-3.646-6.979-7.654-9.808-12.041c-5.716-8.712-9.39-19.039-9.965-29.701
		c-0.647-10.665,1.823-21.384,6.319-30.871c4.428-9.564,10.656-18.03,17.456-25.77l-0.461,2.564c0.027,0.031-0.094-0.21-0.35-0.459
		c-0.244-0.255-0.589-0.537-0.971-0.807c-0.768-0.546-1.683-1.058-2.628-1.534c-1.904-0.95-3.961-1.778-6.048-2.533
		c-2.092-0.755-4.227-1.443-6.38-2.086c-2.146-0.639-4.34-1.246-6.486-1.779l-0.069-0.017c-1.183-0.294-1.903-1.492-1.609-2.675
		c0.242-0.976,1.102-1.636,2.058-1.673l42.815-1.62l-0.92,0.341c1.574-1.14,3.083-2.03,4.683-2.911
		c1.585-0.867,3.204-1.66,4.85-2.387c3.291-1.452,6.693-2.625,10.151-3.565c6.925-1.867,14.073-2.746,21.229-2.584
		c7.151,0.18,14.471,2.123,20.287,6.445c5.796,4.302,9.939,10.595,11.685,17.513L175.452,77.791z"/>
	<path clip-path="url(#SVGID_4_)" fill="#0F519D" d="M175.744,77.877c-4.037,0.396-8.108,0.426-12.17,0.134
		c-2.034-0.131-4.059-0.379-6.078-0.683c-2.021-0.295-4.019-0.733-6.003-1.178l1.653-1.354c0.054,1.229,1.085,2.577,2.348,3.726
		c1.274,1.162,2.773,2.209,4.335,3.167c1.571,0.95,3.221,1.816,4.934,2.534c0.851,0.375,1.722,0.701,2.601,1.005
		c0.874,0.314,1.769,0.59,2.657,0.824l0.015,0.004c0.245,0.065,0.391,0.315,0.326,0.56c-0.031,0.117-0.105,0.212-0.201,0.272
		c-4.195,2.61-8.81,4.481-13.743,5.338c-4.929,0.802-10.043,0.425-14.891-0.826c-4.856-1.291-9.346-3.655-13.338-6.546
		c-4.003-2.896-7.51-6.378-10.472-10.235l0.215-0.209c3.763,3.051,7.616,5.89,11.676,8.29c2.006,1.241,4.127,2.249,6.233,3.245
		c1.078,0.438,2.139,0.925,3.243,1.283c0.546,0.194,1.084,0.415,1.636,0.59l1.662,0.507c4.443,1.303,9.103,1.852,13.761,1.519
		c2.328-0.154,4.667-0.471,6.96-1.057c2.275-0.596,4.558-1.439,6.533-2.67l0.14,0.835c-1.82-0.545-3.6-1.124-5.398-1.715
		c-1.786-0.612-3.586-1.215-5.356-1.958c-1.768-0.745-3.523-1.6-5.135-2.831c-0.792-0.627-1.585-1.324-2.216-2.239
		c-0.626-0.895-1.172-2.031-1.198-3.304l-0.001-0.051c-0.015-0.728,0.564-1.331,1.293-1.346c0.123-0.002,0.248,0.014,0.361,0.043
		c1.929,0.506,3.867,0.931,5.81,1.347c1.945,0.413,3.906,0.75,5.873,1.082c1.971,0.309,3.95,0.605,5.94,0.857l5.998,0.74
		L175.744,77.877z"/>
	<path clip-path="url(#SVGID_4_)" fill="#0F519D" d="M121.518,99.323l1.125,5.049c0.387,1.681,0.738,3.368,1.071,5.056l1.029,5.063
		c0.361,1.685,0.76,3.364,1.052,5.059l-2.954-0.455c1.136-2.422,2.162-4.913,3.067-7.461c0.874-2.559,1.722-5.135,2.466-7.75
		c0.736-2.617,1.415-5.255,2.045-7.908c0.612-2.652,1.185-5.336,1.684-7.992l1.638,0.93c-7.038,5.582-13.711,11.656-19.54,18.474
		c-5.807,6.808-10.769,14.435-13.761,22.868c-3.039,8.387-3.715,17.669-1.485,26.361c1.105,4.339,2.869,8.51,5.15,12.379
		c2.291,3.856,5.054,7.483,8.343,10.54l0.009,0.009c0.061,0.057,0.064,0.152,0.008,0.212c-0.056,0.061-0.15,0.064-0.211,0.009
		c-6.718-6.106-11.686-14.136-14.116-22.935c-2.433-8.814-1.914-18.36,1.049-27.006c2.919-8.693,7.919-16.527,13.723-23.522
		c5.837-7.004,12.519-13.239,19.564-18.973c0.433-0.352,1.069-0.287,1.421,0.146c0.178,0.218,0.249,0.486,0.222,0.744l-0.005,0.041
		c-0.302,2.779-0.736,5.5-1.242,8.227c-0.496,2.725-1.086,5.435-1.759,8.128c-1.331,5.392-3.087,10.703-5.453,15.824l-0.012,0.026
		c-0.358,0.775-1.277,1.113-2.053,0.755c-0.509-0.235-0.83-0.715-0.888-1.235c-0.188-1.709-0.27-3.434-0.388-5.153l-0.411-5.15
		c-0.148-1.714-0.277-3.432-0.369-5.155l-0.316-5.163c-0.005-0.083,0.058-0.154,0.141-0.159
		C121.437,99.201,121.502,99.252,121.518,99.323"/>
	<path clip-path="url(#SVGID_4_)" fill="#0F519D" d="M106.138,90.492c-0.382,2.014-1.603,3.756-2.758,5.402
		c-1.209,1.633-2.516,3.181-3.862,4.68c-1.329,1.515-2.723,2.96-4.056,4.441c-1.328,1.472-2.702,2.937-3.743,4.492l-0.43,0.672
		l-0.057,0.075c-0.039,0.047-0.084,0.094-0.13,0.138c-0.044,0.037,0,0.01-0.117,0.097c-0.091,0.063-0.197,0.116-0.304,0.15
		c-0.07,0.019-0.07,0.027-0.196,0.042c-0.134,0.014-0.299,0-0.453-0.056c-0.155-0.054-0.29-0.147-0.382-0.238
		c-0.063-0.065-0.079-0.091-0.116-0.144c-0.065-0.094-0.117-0.203-0.149-0.309c-0.029-0.106-0.019-0.085-0.029-0.133
		c-0.01-0.06-0.019-0.143-0.019-0.184l0.004-0.188c0.014-0.2,0.038-0.327,0.06-0.472c0.095-0.541,0.206-1.027,0.315-1.523
		l0.655-2.932c0.465-1.94,0.847-3.89,1.221-5.84c0.346-1.953,0.655-3.913,0.792-5.886c0.14-1.968,0.162-3.965-0.382-5.91
		c0.975,1.794,1.241,3.897,1.375,5.919c0.095,2.042-0.009,4.082-0.228,6.101c-0.197,2.023-0.556,4.018-0.912,6.005l-0.606,2.954
		c-0.099,0.484-0.201,0.98-0.272,1.428c-0.015,0.103-0.032,0.224-0.033,0.275c-0.001,0.014-0.001,0-0.001,0
		c0.001-0.01-0.001-0.062-0.008-0.091l-0.022-0.087c-0.026-0.092-0.071-0.186-0.129-0.267c-0.034-0.046-0.049-0.063-0.106-0.123
		c-0.085-0.089-0.212-0.179-0.359-0.231c-0.146-0.053-0.305-0.065-0.431-0.049c-0.118,0.018-0.112,0.019-0.175,0.035
		c-0.093,0.027-0.186,0.072-0.263,0.128l-0.082,0.065c-0.025,0.021-0.048,0.046-0.066,0.07l-0.002-0.001l0.379-0.597
		c1.235-1.757,2.625-3.224,4.038-4.677c1.428-1.431,2.857-2.837,4.307-4.217c1.43-1.398,2.874-2.775,4.231-4.228
		C103.977,93.819,105.346,92.348,106.138,90.492"/>
	<path clip-path="url(#SVGID_4_)" fill="#0F519D" d="M115.965,183.747c0,0-51.289-40.294,16.179-96.106
		C54.396,124.449,94.21,174.179,115.965,183.747"/>
	
		<path clip-path="url(#SVGID_4_)" fill="none" stroke="#0F519D" stroke-linecap="round" stroke-linejoin="round" stroke-miterlimit="10" d="
		M115.965,183.747c0,0-51.289-40.294,16.179-96.106C54.396,124.449,94.21,174.179,115.965,183.747z"/>
	<path clip-path="url(#SVGID_4_)" fill="#FFFFFF" d="M191.186,156.56c-0.125,0-0.192-0.005-0.192-0.005l-0.77-0.054l-0.151-0.758
		l-4.184-22.145l0.209-0.333c0.058-0.093,1.45-2.289,3.252-3.501c1.111-0.747,1.116-1.609,1.116-1.646l-0.006-0.554l0.467-0.327
		c0.096-0.062,0.584-0.356,1.159-0.385c0.857-1.172,2.647-2.792,4.182-4.087l1.246-1.052l0.373,1.587
		c0.02,0.086,0.46,1.981,0.717,4.556c0.477,0.457,1.041,1.534,1.617,4.069c0.265,0.171,0.592,0.417,0.826,0.709
		c0.145,0.182,0.469,0.587,0.445,2.566c0.183,0.174,0.364,0.417,0.533,0.747l0.057,0.113l0.028,0.122
		c0.483,2.145-0.385,7.011-0.67,8.488c0.088,0.161,0.191,0.355,0.274,0.536l0.078,0.17l0.011,0.186
		c0.013,0.211,0.042,0.688-1.253,3.474c0.064,0.107,0.12,0.228,0.161,0.357l0.077,0.245l-0.05,0.252
		c-0.056,0.278-0.114,0.565-1.914,2.193c0.026,0.153,0.03,0.314,0.01,0.48l-0.04,0.344l-0.242,0.244
		C195.417,156.313,192.122,156.56,191.186,156.56"/>
	<path clip-path="url(#SVGID_4_)" fill="#0F519D" d="M196.912,123.528c0,0,0.51,2.171,0.749,5c0.021-0.007,0.042-0.009,0.062-0.009
		c0.75,0,1.615,4.05,1.615,4.05s0.628,0.315,0.927,0.689c0.3,0.374,0.21,2.515,0.21,2.515s0.009-0.002,0.027-0.002
		c0.08,0,0.336,0.05,0.632,0.63c0.509,2.261-0.748,8.443-0.748,8.443s0.254,0.419,0.418,0.778c0.03,0.494-1.432,3.565-1.432,3.565
		s0.298,0.231,0.385,0.507c-0.06,0.299-2.276,2.245-2.276,2.245s0.42,0,0.36,0.509c-2.918,2.944-5.993,3.112-6.656,3.112
		c-0.085,0-0.131-0.003-0.131-0.003l-4.11-21.76c0,0,1.317-2.096,2.963-3.203c1.647-1.108,1.557-2.515,1.557-2.515
		s0.359-0.229,0.712-0.229c0.14,0,0.28,0.037,0.396,0.139C192.781,127.016,196.912,123.528,196.912,123.528 M198.115,119.896
		L195.622,122c-2.189,1.848-3.403,3.081-4.086,3.92c-0.542,0.118-0.961,0.353-1.148,0.473l-1.161,0.741l0.227,1.012
		c-0.033,0.133-0.164,0.453-0.663,0.788c-1.942,1.307-3.383,3.547-3.541,3.798l-0.417,0.665l0.145,0.771l4.111,21.761l0.286,1.509
		l1.557,0.116c0,0,0.088,0.006,0.253,0.006c1.034,0,4.67-0.268,8.076-3.705l0.485-0.489l0.081-0.684
		c0.007-0.06,0.012-0.117,0.015-0.176c1.707-1.574,1.777-1.927,1.876-2.421l0.101-0.504l-0.155-0.489
		c-0.006-0.018-0.011-0.034-0.017-0.052c1.208-2.649,1.177-3.158,1.154-3.54l-0.023-0.373l-0.156-0.339
		c-0.042-0.093-0.088-0.187-0.134-0.278c0.36-1.922,1.088-6.365,0.597-8.549l-0.055-0.246l-0.115-0.224
		c-0.133-0.261-0.276-0.483-0.424-0.672c-0.021-2.008-0.415-2.5-0.664-2.811c-0.212-0.265-0.47-0.495-0.719-0.683
		c-0.451-1.894-0.937-3.149-1.544-3.901c-0.267-2.471-0.684-4.269-0.704-4.353L198.115,119.896z"/>
	<path clip-path="url(#SVGID_4_)" fill="#0F519D" d="M195.596,126.85c-0.663,1.738-0.942,3.613-1.232,5.465
		c-0.304,1.852-0.527,3.724-0.745,5.593c-0.227,1.869-0.246,3.767-0.659,5.608c-0.398,1.844-0.857,3.681-1.632,5.486l-0.198-0.023
		c-0.32-1.943-0.283-3.85-0.15-5.745c0.124-1.897,0.66-3.735,1.061-5.59c0.418-1.853,0.84-3.704,1.346-5.541
		c0.558-1.816,1.049-3.682,2.035-5.352L195.596,126.85z"/>
	<path clip-path="url(#SVGID_4_)" fill="#FFFFFF" d="M144.758,215.048c-0.494,0-1.199-0.2-1.752-1.158
		c-2.24-3.879-0.913-20.981,1.381-24.954c0.45-0.779,1.002-1.174,1.642-1.174c0.24,0,0.474,0.059,0.694,0.175
		c2.769,1.454,5.994,2.19,9.584,2.19c11.461,0,24.375-7.57,30.707-14.693c3.092-3.479,4.634-6.764,4.341-9.246
		c-0.514-4.353-3.691-8.304-4.77-9.535c-0.355,0.053-0.848,0.103-1.463,0.103c-2.956,0-8.923-1.158-15.668-8.918l-0.19-0.219
		l-0.044-0.285c-0.058-0.38-0.02-0.701,0.073-0.965c-0.485-0.707-1.014-1.696-0.951-2.581c-0.758-0.875-2.137-2.671-2.041-3.533
		c0.038-0.339,0.189-0.609,0.401-0.818c-0.988-2.455-0.773-2.864-0.611-3.17c0.076-0.146,0.167-0.273,0.265-0.382
		c-1.073-2.352-0.975-2.776-0.914-3.039c0.065-0.277,0.174-0.504,0.294-0.683c-0.625-3.204-0.338-3.595-0.126-3.885l0.213-0.291
		c-0.098-1.105-0.139-2.395,0.114-2.984c0.164-0.383,0.402-0.649,0.654-0.829c0.035-0.949,0.136-2.67,0.42-3.679l0.233-0.83
		l0.856,0.11c1.52,0.193,4.246,2.226,5.206,2.974c0.7,0.083,2.282,0.398,3.713,1.61c1.224,0.021,2.729,0.982,3.795,2.095
		c0.35-0.156,0.712-0.221,1.009-0.221c0.779,0.002,2.227,2.088,2.94,3.238c0.509,0.019,0.847,0.248,0.941,0.32
		c0.149,0.107,0.562,0.492,1.233,1.665c0.05-0.004,0.098-0.006,0.148-0.006c0.171,0,0.299,0.025,0.361,0.039l0.38,0.091l0.218,0.326
		c0.344,0.514,8.234,12.514,3.57,22.975c1.412,2.456,2.512,5.147,3.844,9.373c5.954,18.887-21.639,34.105-38.125,43.197
		c-5.029,2.775-9.372,5.17-10.7,6.602C146.009,214.723,145.396,215.048,144.758,215.048"/>
	<path clip-path="url(#SVGID_4_)" fill="#0F519D" d="M167.973,120.764c1.487,0.19,4.95,2.954,4.95,2.954s2.075,0.04,3.752,1.677
		c0.093-0.026,0.194-0.039,0.302-0.039c1.054,0,2.758,1.179,3.69,2.474c0.373-0.595,1.132-0.6,1.157-0.6
		c0,0,1.796,1.897,2.435,3.353c0.167-0.086,0.315-0.115,0.439-0.115c0.249,0,0.4,0.115,0.4,0.115s0.468,0.34,1.396,2.156
		c0.197-0.248,0.444-0.291,0.592-0.291c0.077,0,0.127,0.012,0.127,0.012s8.223,12.294,3.273,22.473
		c1.53,2.559,2.657,5.301,4.019,9.62c7.585,24.059-42.796,42.557-48.605,48.816c-0.432,0.465-0.811,0.678-1.142,0.678
		c-3.603,0-1.458-25.285,1.272-25.285c0.076,0,0.152,0.019,0.229,0.059c3.059,1.607,6.485,2.306,10.048,2.306
		c16.983,0,37.125-15.871,36.041-25.058c-0.665-5.628-5.404-10.509-5.404-10.509s-0.658,0.194-1.822,0.194
		c-2.773,0-8.419-1.104-14.913-8.576c-0.1-0.649,0.319-0.828,0.319-0.828s-1.637-2.016-1.078-2.834
		c-0.778-0.719-2.195-2.794-2.155-3.154c0.04-0.359,0.678-0.479,0.678-0.479s-1.197-2.774-0.998-3.153
		c0.2-0.379,0.639-0.519,0.639-0.519s-1.297-2.712-1.198-3.142c0.1-0.431,0.4-0.61,0.4-0.61s-0.665-3.231-0.4-3.593
		c0.266-0.361,0.44-0.598,0.44-0.598s-0.24-2.315,0-2.874c0.239-0.559,0.718-0.559,0.718-0.559S167.614,122.042,167.973,120.764
		 M166.515,118.562l-0.467,1.661c-0.271,0.964-0.388,2.441-0.438,3.475c-0.231,0.242-0.436,0.543-0.593,0.909
		c-0.109,0.255-0.382,0.892-0.22,3.087c-0.373,0.509-0.721,1.01-0.112,4.296c-0.087,0.186-0.163,0.395-0.217,0.628
		c-0.103,0.446-0.218,0.943,0.748,3.162l-0.011,0.019c-0.33,0.627-0.484,1.254,0.368,3.496c-0.141,0.26-0.232,0.545-0.266,0.848
		c-0.135,1.217,1.16,2.977,2.031,4.006c0.059,0.851,0.444,1.7,0.887,2.414c-0.042,0.285-0.043,0.593,0.007,0.92l0.088,0.572
		l0.379,0.436c7.006,8.061,13.296,9.264,16.423,9.264c0.394,0,0.745-0.019,1.049-0.047c1.224,1.475,3.756,4.913,4.191,8.597
		c0.255,2.164-1.238,5.25-4.096,8.465c-6.187,6.96-18.79,14.357-29.959,14.357c-3.426,0-6.494-0.697-9.119-2.075
		c-0.365-0.192-0.755-0.289-1.158-0.289c-2.412,0-3.422,2.992-4.195,7.486c-0.612,3.561-0.978,7.938-0.978,11.714
		c0,2.537,0.163,4.601,0.483,6.135c0.548,2.622,1.698,3.95,3.418,3.95c0.919,0,1.797-0.443,2.608-1.317
		c1.219-1.313,5.497-3.673,10.451-6.405c16.754-9.241,44.795-24.708,38.595-44.374c-1.278-4.054-2.35-6.727-3.684-9.133
		c4.454-10.844-3.502-22.945-3.853-23.47l-0.436-0.652l-0.763-0.182c-0.042-0.01-0.093-0.021-0.152-0.031
		c-0.443-0.712-0.848-1.21-1.212-1.488c-0.004-0.003-0.007-0.006-0.012-0.009c-0.01-0.008-0.02-0.015-0.03-0.023
		c-0.155-0.111-0.445-0.289-0.847-0.399c-0.858-1.333-1.987-2.54-2.147-2.709l-0.592-0.625h-0.86c-0.233,0-0.487,0.027-0.747,0.085
		c-1.067-0.972-2.418-1.775-3.67-1.931c-1.386-1.078-2.839-1.458-3.7-1.593c-1.361-1.048-3.846-2.802-5.481-3.011L166.515,118.562z"
		/>
	<path clip-path="url(#SVGID_4_)" fill="#0F519D" d="M171.067,125.583c1.817,2.024,3.559,4.122,5.247,6.263
		c0.848,1.069,1.651,2.168,2.476,3.256c0.791,1.109,1.591,2.214,2.362,3.339c1.551,2.242,3.289,4.388,4.449,6.87
		c1.175,2.467,2.21,5.02,2.708,7.817l-0.268,0.135c-1.964-2.029-3.537-4.227-5.046-6.466c-1.521-2.226-2.565-4.731-3.88-7.087
		c-1.314-2.355-2.66-4.693-4.039-7.018c-1.342-2.351-2.815-4.617-4.247-6.927L171.067,125.583z"/>
	<path clip-path="url(#SVGID_4_)" fill="#0F519D" d="M191.229,163.736c0,0,4.28,9.813-9.014,23.102
		c-6.189,6.186-9.913,6.471-33.619,14.503c-36.961,12.522-55.556-15.69-1.995-12.292
		C198.992,184.642,191.229,163.736,191.229,163.736"/>
	
		<path clip-path="url(#SVGID_4_)" fill="none" stroke="#0F519D" stroke-linecap="round" stroke-linejoin="round" stroke-miterlimit="10" d="
		M191.229,163.736c0,0,4.28,9.813-9.014,23.102c-6.189,6.186-9.913,6.471-33.619,14.503c-36.961,12.522-55.556-15.69-1.995-12.292
		C198.992,184.642,191.229,163.736,191.229,163.736z"/>
	<path clip-path="url(#SVGID_4_)" fill="#0F519D" d="M143.304,272.882c-40.717,0-80.684-21.633-99.766-53.912l24.718-0.014
		l5.934,5.937c0.094,0.094,0.221,0.146,0.354,0.146h3.35c0.133,0,0.26-0.052,0.354-0.146l3.029-3.03
		c0.094-0.093,0.147-0.22,0.147-0.354v-2.929l2.072-4.956c0.025-0.061,0.038-0.127,0.038-0.192v-10.164l3.353-11.736l3.267,11.551
		v12.047c0,0.102,0.03,0.198,0.086,0.281l2.34,3.443c0.094,0.136,0.249,0.218,0.414,0.218h0.019c0.173-0.006,0.33-0.103,0.415-0.252
		l1.859-3.258c0.043-0.076,0.066-0.161,0.066-0.248v-15.592l2.074-3.134c0.039-0.06,0.065-0.126,0.077-0.195l0.396-2.427l0.126,1.92
		c0.017,0.264,0.236,0.468,0.499,0.468h2.616c0.256,0,0.47-0.194,0.497-0.448l0.216-2.039l0.145,1.132
		c0.026,0.206,0.177,0.374,0.378,0.423c0.039,0.01,0.079,0.015,0.118,0.015c0.162,0,0.317-0.079,0.412-0.218l11.657-16.936
		c0.045-0.064,0.073-0.139,0.084-0.217l0.441-3.332l0.31,3.131c0.025,0.256,0.24,0.452,0.497,0.452h25.565
		c0.251,0,0.463-0.188,0.495-0.436l0.404-3.075l0.28,3.06c0.007,0.075,0.031,0.146,0.069,0.211l13.514,22.577
		c0.092,0.154,0.256,0.244,0.429,0.244c0.045,0,0.089-0.006,0.133-0.02c0.217-0.059,0.367-0.257,0.367-0.48v-6.845h1.152
		c0.277,0,0.5-0.224,0.5-0.5c0-13.844,9.47-14.003,9.873-14.003c0.276,0,0.5-0.224,0.5-0.5v-6.334
		c0.112-1.284,0.79-5.075,2.352-5.075c1.556,0,2.151,3.796,2.237,5.126l-0.035,6.28c-0.002,0.255,0.189,0.471,0.442,0.5
		c0.374,0.044,9.184,1.239,9.885,14.033c0.015,0.265,0.234,0.473,0.499,0.473h1.153v7.604c0,0.277,0.223,0.5,0.5,0.5h11.749
		c0.276,0,0.5-0.223,0.5-0.5v-20.995l2.018-9.741h2.163c0.252,0,0.464-0.186,0.497-0.436l3.78-29.358l3.212,29.073
		c0.029,0.254,0.242,0.446,0.497,0.446h2.351l2.015,9.284v21.334c0,0.126,0.047,0.246,0.133,0.34l2.161,2.335v17.61
		c0,0.276,0.224,0.5,0.5,0.5h8.262c0.163,0,0.317-0.08,0.41-0.215l3.428-4.926l3.465,4.84c0.094,0.131,0.245,0.209,0.406,0.209
		l8.761,0.015C208.354,263.937,169.748,272.882,143.304,272.882"/>
	<path clip-path="url(#SVGID_4_)" fill="#FFFFFF" d="M206.879,144.836l2.754,24.919c0.055,0.508,0.484,0.891,0.993,0.891h1.948
		l1.918,8.837v21.281c0,0.252,0.094,0.493,0.266,0.679l2.028,2.191v17.416c0,0.552,0.448,1,1,1h8.262c0.327,0,0.634-0.16,0.821-0.43
		l3.023-4.345l3.053,4.264c0.188,0.263,0.489,0.417,0.812,0.418l7.715,0.014c-13.825,16.971-29.612,29.891-46.952,38.423
		c-16.171,7.955-33.402,11.987-51.215,11.987c-20.543,0-41.043-5.418-59.285-15.669c-16.711-9.391-30.709-22.568-39.6-37.242
		l23.629-0.014l5.788,5.788c0.187,0.188,0.442,0.293,0.707,0.293h3.35c0.266,0,0.52-0.104,0.707-0.293l3.03-3.029
		c0.187-0.188,0.293-0.442,0.293-0.706v-2.829l2.033-4.864c0.052-0.122,0.078-0.253,0.078-0.385v-7.16v-2.936l2.85-9.976
		l2.769,9.791v2.983v8.994c0,0.201,0.06,0.396,0.173,0.562l2.34,3.443c0.187,0.273,0.497,0.437,0.827,0.437
		c0.013,0,0.026,0,0.04-0.001c0.344-0.013,0.658-0.204,0.829-0.504l1.859-3.258c0.086-0.151,0.131-0.322,0.131-0.495v-15.442
		l1.991-3.008c0.041-0.061,0.074-0.127,0.101-0.196c0.164,0.117,0.364,0.187,0.58,0.187h2.616c0.511,0,0.94-0.386,0.994-0.896
		l0.009-0.087c0.038,0.015,0.076,0.026,0.115,0.035c0.079,0.021,0.157,0.029,0.236,0.029c0.324,0,0.634-0.159,0.823-0.434
		l11.658-16.937c0.039-0.056,0.072-0.117,0.099-0.179c0.181,0.26,0.483,0.429,0.821,0.429h25.565c0.347,0,0.658-0.178,0.837-0.453
		l13.496,22.548c0.184,0.308,0.513,0.486,0.858,0.486c0.089,0,0.178-0.011,0.267-0.036c0.433-0.12,0.733-0.514,0.733-0.964v-6.343
		h0.653c0.552,0,1-0.448,1-1c0-13.274,8.993-13.5,9.372-13.503c0.552,0,1-0.448,1-1v-6.29c0.176-1.944,0.959-4.62,1.852-4.62
		c0.815,0,1.585,2.434,1.736,4.625l-0.034,6.278c-0.003,0.508,0.378,0.937,0.882,0.999c0.357,0.044,8.77,1.224,9.446,13.564
		c0.029,0.531,0.467,0.946,0.999,0.946h0.652v7.104c0,0.553,0.447,1,1,1h11.749c0.552,0,1-0.447,1-1v-20.944l1.925-9.292h1.757
		c0.502,0,0.927-0.373,0.991-0.872L206.879,144.836 M206.955,136.417l-4.314,33.503h-2.571l-2.111,10.189v21.047H186.21v-8.104
		h-1.652c-0.735-13.402-10.327-14.503-10.327-14.503l0.034-6.317c0,0-0.361-5.593-2.736-5.593c-2.376,0-2.852,5.575-2.852,5.575
		v6.335c0,0-10.372,0-10.372,14.503h-1.653v7.343l-13.513-22.577l-0.691-7.531l-0.987,7.527h-25.565l-0.734-7.436l-1.01,7.619
		l-11.657,16.937l-0.688-5.371l-0.666,6.289h-2.616l-0.413-6.289l-1.102,6.748l-2.157,3.258v15.743l-1.859,3.258l-2.34-3.442v-8.994
		v-3.121l-3.764-13.312l-3.855,13.494v3.075v7.16l-2.111,5.049v3.029l-3.03,3.028h-3.35l-6.081-6.082l-25.796,0.016
		c17.974,31.088,57.448,54.91,100.638,54.91c34.009,0,70.324-14.774,100.253-52.407l-9.8-0.017l-3.878-5.416l-3.832,5.509h-8.262
		v-17.809l-2.294-2.478v-21.389l-2.112-9.729h-2.754L206.955,136.417z"/>
	<path clip-path="url(#SVGID_4_)" fill="#0F519D" d="M141.081,61.219c-0.654,1.467-1.223,2.967-1.611,4.491
		c-0.408,1.512-0.683,3.042-0.722,4.519c-0.021,0.739,0.078,1.467,0.249,2.139l0.447,1.958c0.155,0.643,0.358,1.283,0.611,1.973
		c0.262,0.687,0.624,1.368,0.99,2.202l-0.177,0.241c-1.807-0.297-3.382-1.632-4.231-3.357c-0.412-0.866-0.607-1.818-0.598-2.744
		c0.011-0.93,0.161-1.821,0.324-2.68c0.321-1.726,0.942-3.32,1.712-4.801c0.799-1.467,1.676-2.862,2.757-4.108L141.081,61.219z"/>
	<path clip-path="url(#SVGID_4_)" fill="#0F519D" d="M162.913,60.484c-14.251-6.904-28.203-4.805-43.249,7.187
		c-10.855,8.652-22.214,0.276-45.965,1.423c9.513-1.56,30.452-2.34,30.452-2.34S137.785,42.446,162.913,60.484"/>
	<path clip-path="url(#SVGID_4_)" fill="#0F519D" d="M162.595,65.947c0,1.597-1.294,2.891-2.892,2.891
		c-1.596,0-2.891-1.294-2.891-2.891c0-1.597,1.295-2.892,2.891-2.892C161.301,63.055,162.595,64.35,162.595,65.947"/>
	<circle clip-path="url(#SVGID_4_)" fill="none" stroke="#0F519D" stroke-miterlimit="10" cx="159.703" cy="65.947" r="2.892"/>
	<path clip-path="url(#SVGID_4_)" fill="#0F519D" d="M143.556,26.333c67.347,0,121.941,54.595,121.941,121.941
		c0,67.347-54.594,121.942-121.941,121.942c-67.346,0-121.941-54.596-121.941-121.942C21.615,80.928,76.21,26.333,143.556,26.333
		 M143.556,22.333c-33.64,0-65.267,13.1-89.054,36.887c-23.787,23.788-36.887,55.414-36.887,89.054
		c0,33.64,13.1,65.267,36.887,89.054c23.787,23.787,55.414,36.889,89.054,36.889s65.267-13.102,89.054-36.889
		c23.787-23.787,36.887-55.414,36.887-89.054c0-33.64-13.1-65.266-36.887-89.054C208.823,35.433,177.196,22.333,143.556,22.333"/>
</g>
<g>
	<path fill="#0F519D" d="M355.863,168.317h-17.875l-5.18-16.199H306.91l-5.129,16.199h-17.773l26.508-72.82h19.449L355.863,168.317z
		 M329.051,139.524l-7.82-24.477c-0.576-1.828-0.982-4.012-1.219-6.551h-0.406c-0.17,2.133-0.593,4.249-1.27,6.348l-7.922,24.68
		H329.051z"/>
	<path fill="#0F519D" d="M387.449,95.497v12.695h-6.094v47.43h6.094v12.695h-28.59v-12.695h6.094v-47.43h-6.094V95.497H387.449z"/>
	<path fill="#0F519D" d="M457.375,168.317h-19.449l-12.543-23.715c-0.475-0.88-0.965-2.505-1.473-4.875h-0.203
		c-0.237,1.117-0.796,2.811-1.676,5.078l-12.594,23.512h-19.551l23.207-36.41l-21.227-36.41h19.957l10.41,21.836
		c0.812,1.727,1.54,3.775,2.184,6.145h0.203c0.406-1.422,1.168-3.537,2.285-6.348l11.578-21.633h18.281l-21.836,36.105
		L457.375,168.317z"/>
	<path fill="#0F519D" d="M482.461,143.231v25.086h-16.402v-72.82h25.695c18.349,0,27.523,7.736,27.523,23.207
		c0,7.312-2.633,13.229-7.896,17.748c-5.265,4.52-12.298,6.779-21.1,6.779H482.461z M482.461,108.091v22.699h6.449
		c8.734,0,13.102-3.825,13.102-11.477c0-7.481-4.367-11.223-13.102-11.223H482.461z"/>
	<path fill="#0F519D" d="M560.715,169.587c-10.428,0-18.925-3.394-25.492-10.182c-6.568-6.787-9.852-15.632-9.852-26.533
		c0-11.51,3.334-20.82,10.004-27.93c6.669-7.109,15.505-10.664,26.508-10.664c10.393,0,18.797,3.402,25.213,10.207
		c6.415,6.805,9.623,15.776,9.623,26.914c0,11.443-3.326,20.668-9.979,27.676S571.412,169.587,560.715,169.587z M561.426,108.396
		c-5.756,0-10.326,2.158-13.711,6.475c-3.386,4.316-5.078,10.029-5.078,17.139c0,7.211,1.692,12.916,5.078,17.113
		c3.385,4.198,7.82,6.297,13.305,6.297c5.653,0,10.139-2.039,13.457-6.119c3.317-4.079,4.977-9.741,4.977-16.986
		c0-7.549-1.608-13.423-4.824-17.621C571.412,110.495,567.012,108.396,561.426,108.396z"/>
	<path fill="#0F519D" d="M674.312,168.317h-16.555l-30.012-45.754c-1.761-2.674-2.979-4.688-3.656-6.043h-0.203
		c0.271,2.573,0.406,6.5,0.406,11.781v40.016h-15.488v-72.82h17.672l28.895,44.332c1.32,1.998,2.539,3.979,3.656,5.941h0.203
		c-0.271-1.692-0.406-5.027-0.406-10.004v-40.27h15.488V168.317z"/>
	<path fill="#0F519D" d="M713.465,95.497v12.695h-6.094v47.43h6.094v12.695h-28.59v-12.695h6.094v-47.43h-6.094V95.497H713.465z"/>
	<path fill="#0F519D" d="M776.129,165.728c-5.315,2.573-12.256,3.859-20.82,3.859c-11.172,0-19.957-3.283-26.355-9.852
		c-6.398-6.567-9.598-15.318-9.598-26.254c0-11.646,3.597-21.091,10.791-28.336c7.193-7.244,16.529-10.867,28.006-10.867
		c7.109,0,13.102,0.897,17.977,2.691v15.793c-4.875-2.911-10.428-4.367-16.656-4.367c-6.839,0-12.357,2.15-16.555,6.449
		c-4.198,4.3-6.297,10.123-6.297,17.469c0,7.042,1.98,12.653,5.941,16.834c3.961,4.182,9.293,6.271,15.996,6.271
		c6.398,0,12.255-1.557,17.57-4.672V165.728z"/>
</g>
<g>
	<path fill="#0F519D" d="M292.024,201.8h-4.475v-21.467h4.475V201.8z"/>
	<path fill="#0F519D" d="M302.701,202.153c-2.417,0-4.316-0.677-5.7-2.031c-1.383-1.354-2.074-3.193-2.074-5.516
		c0-2.397,0.717-4.274,2.152-5.629s3.375-2.031,5.82-2.031c2.407,0,4.295,0.677,5.664,2.031s2.053,3.146,2.053,5.374
		c0,2.407-0.706,4.31-2.117,5.706C307.088,201.455,305.156,202.153,302.701,202.153z M302.814,190.372
		c-1.057,0-1.878,0.364-2.464,1.091s-0.878,1.756-0.878,3.087c0,2.785,1.124,4.178,3.37,4.178c2.143,0,3.214-1.431,3.214-4.291
		C306.057,191.728,304.976,190.372,302.814,190.372z"/>
	<path fill="#0F519D" d="M328.048,201.8h-5.367l-4.63-7.193h-0.057v7.193h-4.475v-21.467h4.475v13.664h0.057l4.319-6.697h5.31
		l-5.197,6.811L328.048,201.8z"/>
	<path fill="#0F519D" d="M341.797,201.8h-4.234v-2.082h-0.057c-0.972,1.624-2.412,2.436-4.319,2.436
		c-1.407,0-2.513-0.398-3.321-1.196c-0.807-0.798-1.21-1.862-1.21-3.192c0-2.813,1.666-4.438,4.999-4.871l3.937-0.524
		c0-1.586-0.859-2.379-2.577-2.379c-1.728,0-3.37,0.515-4.928,1.544v-3.371c0.623-0.32,1.475-0.604,2.556-0.85
		c1.081-0.245,2.065-0.367,2.953-0.367c4.135,0,6.202,2.062,6.202,6.188V201.8z M337.592,195.909v-0.977l-2.634,0.34
		c-1.454,0.188-2.181,0.845-2.181,1.968c0,0.51,0.177,0.928,0.531,1.253c0.354,0.326,0.833,0.488,1.437,0.488
		c0.84,0,1.524-0.29,2.053-0.87C337.328,197.53,337.592,196.797,337.592,195.909z"/>
	<path fill="#0F519D" d="M349.812,201.8h-4.475v-21.467h4.475V201.8z"/>
	<path fill="#0F519D" d="M366.606,195.824h-9.459c0.151,2.105,1.478,3.157,3.979,3.157c1.595,0,2.997-0.377,4.206-1.133v3.229
		c-1.34,0.718-3.082,1.076-5.225,1.076c-2.341,0-4.158-0.648-5.452-1.946s-1.94-3.108-1.94-5.431c0-2.407,0.699-4.314,2.096-5.721
		s3.115-2.109,5.154-2.109c2.115,0,3.75,0.627,4.906,1.883c1.157,1.256,1.735,2.959,1.735,5.111V195.824z M362.457,193.077
		c0-2.077-0.84-3.115-2.521-3.115c-0.717,0-1.338,0.297-1.862,0.893c-0.523,0.594-0.842,1.335-0.956,2.223H362.457z"/>
	<path fill="#0F519D" d="M389.446,185.218h-7.165v4.984h6.584v3.711h-6.584v7.887h-4.574v-20.306h11.739V185.218z"/>
	<path fill="#0F519D" d="M394.615,185.006c-0.755,0-1.374-0.225-1.855-0.673s-0.722-0.998-0.722-1.649
		c0-0.67,0.241-1.218,0.722-1.643s1.1-0.638,1.855-0.638c0.765,0,1.385,0.213,1.862,0.638c0.477,0.425,0.715,0.973,0.715,1.643
		c0,0.68-0.238,1.236-0.715,1.671C396,184.789,395.379,185.006,394.615,185.006z M396.824,201.8h-4.475v-14.5h4.475V201.8z"/>
	<path fill="#0F519D" d="M399.642,201.417v-3.625c0.736,0.444,1.471,0.774,2.202,0.992c0.731,0.217,1.423,0.325,2.074,0.325
		c0.793,0,1.418-0.108,1.876-0.325c0.458-0.218,0.687-0.548,0.687-0.992c0-0.283-0.104-0.519-0.311-0.707
		c-0.208-0.189-0.475-0.354-0.801-0.496c-0.325-0.142-0.682-0.27-1.068-0.383c-0.388-0.113-0.761-0.24-1.119-0.382
		c-0.576-0.217-1.083-0.451-1.522-0.701c-0.438-0.25-0.807-0.54-1.104-0.87c-0.297-0.331-0.523-0.713-0.68-1.147
		c-0.155-0.435-0.233-0.948-0.233-1.544c0-0.812,0.177-1.51,0.531-2.096c0.354-0.585,0.826-1.063,1.416-1.437
		s1.265-0.646,2.024-0.821s1.551-0.262,2.372-0.262c0.642,0,1.293,0.049,1.954,0.148c0.661,0.099,1.312,0.243,1.954,0.432v3.455
		c-0.566-0.33-1.173-0.578-1.819-0.743s-1.281-0.248-1.904-0.248c-0.293,0-0.569,0.026-0.829,0.078s-0.488,0.127-0.687,0.227
		c-0.198,0.099-0.354,0.227-0.467,0.382c-0.113,0.156-0.17,0.333-0.17,0.531c0,0.265,0.084,0.491,0.254,0.68
		s0.393,0.352,0.666,0.488s0.578,0.26,0.913,0.368s0.668,0.22,0.999,0.333c0.594,0.208,1.133,0.435,1.613,0.68
		c0.482,0.245,0.895,0.533,1.239,0.863c0.345,0.331,0.609,0.718,0.793,1.162c0.185,0.443,0.276,0.972,0.276,1.586
		c0,0.858-0.187,1.593-0.56,2.201c-0.373,0.609-0.868,1.104-1.486,1.487c-0.618,0.382-1.331,0.66-2.139,0.835
		c-0.807,0.175-1.645,0.262-2.513,0.262C402.479,202.153,401.001,201.908,399.642,201.417z"/>
	<path fill="#0F519D" d="M424.336,201.276c-1.01,0.585-2.468,0.877-4.375,0.877c-2.228,0-4.031-0.675-5.409-2.024
		s-2.067-3.092-2.067-5.226c0-2.463,0.738-4.405,2.216-5.826s3.453-2.131,5.927-2.131c1.708,0,2.945,0.227,3.709,0.68v3.795
		c-0.934-0.699-1.978-1.049-3.129-1.049c-1.284,0-2.301,0.376-3.052,1.126c-0.75,0.751-1.126,1.787-1.126,3.108
		c0,1.284,0.359,2.292,1.076,3.023c0.718,0.731,1.704,1.098,2.96,1.098c1.114,0,2.204-0.35,3.271-1.049V201.276z"/>
	<path fill="#0F519D" d="M441.188,201.8h-4.461v-8.241c0-2.124-0.773-3.187-2.322-3.187c-0.793,0-1.435,0.298-1.926,0.893
		c-0.49,0.595-0.736,1.35-0.736,2.266v8.27h-4.475v-21.467h4.475v9.119h0.057c1.096-1.671,2.582-2.506,4.461-2.506
		c3.285,0,4.928,1.982,4.928,5.947V201.8z"/>
	<path fill="#0F519D" d="M452.614,195.626h-7.745v-3.129h7.745V195.626z"/>
	<path fill="#0F519D" d="M483.513,202.126c-0.501,0-0.976-0.066-1.424-0.199c-0.448-0.132-0.873-0.311-1.274-0.537
		s-0.781-0.494-1.14-0.801s-0.698-0.635-1.02-0.984c-0.35,0.283-0.77,0.576-1.26,0.879c-0.491,0.302-1.046,0.573-1.664,0.813
		c-0.618,0.241-1.301,0.439-2.047,0.595c-0.745,0.156-1.543,0.234-2.393,0.234c-1.104,0-2.126-0.133-3.065-0.396
		c-0.939-0.265-1.749-0.659-2.429-1.183c-0.68-0.524-1.211-1.173-1.593-1.947c-0.383-0.774-0.573-1.671-0.573-2.69
		c0-0.803,0.144-1.518,0.432-2.146s0.663-1.178,1.125-1.649c0.463-0.472,0.987-0.878,1.572-1.218s1.18-0.623,1.784-0.85
		c-0.293-0.227-0.588-0.488-0.885-0.786c-0.298-0.297-0.564-0.623-0.8-0.977c-0.236-0.354-0.428-0.739-0.574-1.154
		s-0.219-0.854-0.219-1.316c0-0.746,0.15-1.407,0.453-1.982c0.302-0.576,0.724-1.062,1.267-1.459s1.192-0.698,1.947-0.906
		s1.586-0.312,2.492-0.312c0.868,0,1.664,0.108,2.386,0.325c0.723,0.218,1.343,0.52,1.862,0.906c0.52,0.388,0.921,0.853,1.204,1.396
		s0.424,1.14,0.424,1.791c0,1.048-0.313,1.956-0.941,2.726s-1.513,1.395-2.654,1.877c0.453,0.207,0.887,0.443,1.303,0.707
		c0.415,0.265,0.82,0.566,1.217,0.906s0.784,0.725,1.162,1.154c0.377,0.43,0.75,0.923,1.118,1.48
		c0.774-0.973,1.329-2.009,1.664-3.108s0.503-2.245,0.503-3.435c0-0.358-0.021-0.703-0.064-1.033c-0.042-0.33-0.11-0.637-0.205-0.92
		h3.809c0.104,0.302,0.18,0.594,0.227,0.877c0.048,0.283,0.071,0.619,0.071,1.006c0,0.916-0.097,1.808-0.29,2.676
		c-0.193,0.869-0.465,1.699-0.814,2.492s-0.771,1.544-1.268,2.252c-0.495,0.708-1.041,1.369-1.635,1.982
		c0.462,0.481,0.938,0.852,1.43,1.111s0.953,0.39,1.388,0.39c0.453,0,0.916-0.05,1.388-0.148c0.472-0.1,0.883-0.238,1.232-0.418
		v3.37c-0.52,0.208-1.032,0.361-1.537,0.46C484.699,202.076,484.136,202.126,483.513,202.126z M471.519,198.741
		c0.557,0,1.081-0.055,1.572-0.163c0.49-0.108,0.953-0.252,1.387-0.432c0.435-0.18,0.838-0.387,1.211-0.623s0.715-0.481,1.027-0.736
		c-0.482-0.755-0.959-1.395-1.431-1.919c-0.472-0.523-0.939-0.972-1.401-1.345c-0.463-0.373-0.923-0.687-1.381-0.942
		c-0.458-0.254-0.918-0.485-1.381-0.693c-0.387,0.188-0.758,0.398-1.111,0.63c-0.354,0.231-0.668,0.501-0.941,0.808
		c-0.274,0.307-0.494,0.656-0.659,1.048s-0.247,0.843-0.247,1.353c0,0.453,0.08,0.863,0.24,1.231s0.39,0.685,0.687,0.948
		c0.298,0.265,0.651,0.47,1.062,0.616C470.562,198.668,471.019,198.741,471.519,198.741z M474.138,185.884
		c0-0.273-0.052-0.52-0.155-0.736s-0.245-0.398-0.425-0.545s-0.383-0.26-0.609-0.34s-0.467-0.121-0.722-0.121
		c-0.312,0-0.597,0.048-0.856,0.143c-0.26,0.094-0.486,0.222-0.68,0.382s-0.343,0.352-0.446,0.573s-0.155,0.461-0.155,0.715
		c0,0.529,0.165,1.016,0.495,1.459s0.741,0.803,1.231,1.076c0.312-0.113,0.607-0.245,0.886-0.396s0.523-0.33,0.736-0.538
		c0.212-0.208,0.382-0.448,0.51-0.722C474.074,186.559,474.138,186.242,474.138,185.884z"/>
	<path fill="#0F519D" d="M502.105,194.805v6.995h-4.574v-20.306h7.165c5.116,0,7.675,2.157,7.675,6.472
		c0,2.039-0.734,3.688-2.202,4.948c-1.468,1.261-3.429,1.891-5.884,1.891H502.105z M502.105,185.006v6.329h1.798
		c2.436,0,3.653-1.066,3.653-3.199c0-2.087-1.218-3.13-3.653-3.13H502.105z"/>
	<path fill="#0F519D" d="M524.363,183.76c-0.575-0.227-1.128-0.34-1.656-0.34c-1.435,0-2.152,0.778-2.152,2.337v1.543h3.313v3.299
		h-3.313V201.8h-4.461v-11.201h-2.436V187.3h2.436v-1.799c0-1.651,0.539-2.982,1.615-3.992c1.076-1.011,2.539-1.516,4.389-1.516
		c0.906,0,1.662,0.095,2.266,0.283V183.76z"/>
	<path fill="#0F519D" d="M530.495,201.8h-4.475v-21.467h4.475V201.8z"/>
	<path fill="#0F519D" d="M546.326,201.8h-4.233v-2.082h-0.057c-0.973,1.624-2.412,2.436-4.319,2.436
		c-1.406,0-2.513-0.398-3.32-1.196c-0.807-0.798-1.211-1.862-1.211-3.192c0-2.813,1.667-4.438,4.999-4.871l3.937-0.524
		c0-1.586-0.859-2.379-2.577-2.379c-1.728,0-3.37,0.515-4.928,1.544v-3.371c0.623-0.32,1.475-0.604,2.556-0.85
		c1.081-0.245,2.065-0.367,2.953-0.367c4.135,0,6.201,2.062,6.201,6.188V201.8z M542.121,195.909v-0.977l-2.634,0.34
		c-1.454,0.188-2.181,0.845-2.181,1.968c0,0.51,0.177,0.928,0.531,1.253c0.354,0.326,0.833,0.488,1.438,0.488
		c0.84,0,1.524-0.29,2.053-0.87C541.856,197.53,542.121,196.797,542.121,195.909z"/>
	<path fill="#0F519D" d="M563.871,201.8h-4.46v-8.057c0-2.247-0.803-3.371-2.408-3.371c-0.773,0-1.411,0.298-1.911,0.893
		s-0.751,1.35-0.751,2.266v8.27h-4.475v-14.5h4.475v2.294h0.057c1.067-1.766,2.62-2.647,4.659-2.647c3.21,0,4.814,1.991,4.814,5.975
		V201.8z"/>
	<path fill="#0F519D" d="M578.895,201.8h-13.014v-1.855l7.279-9.346h-6.557V187.3h12.234v2.209l-6.896,8.992h6.953V201.8z"/>
	<path fill="#0F519D" d="M594.329,195.824h-9.459c0.151,2.105,1.478,3.157,3.979,3.157c1.596,0,2.997-0.377,4.206-1.133v3.229
		c-1.341,0.718-3.083,1.076-5.226,1.076c-2.341,0-4.158-0.648-5.452-1.946c-1.293-1.298-1.939-3.108-1.939-5.431
		c0-2.407,0.698-4.314,2.096-5.721s3.115-2.109,5.154-2.109c2.114,0,3.75,0.627,4.906,1.883s1.734,2.959,1.734,5.111V195.824z
		 M590.181,193.077c0-2.077-0.84-3.115-2.521-3.115c-0.718,0-1.338,0.297-1.862,0.893c-0.523,0.594-0.842,1.335-0.955,2.223H590.181
		z"/>
	<path fill="#0F519D" d="M610.996,201.8h-4.46v-8.057c0-2.247-0.803-3.371-2.408-3.371c-0.773,0-1.411,0.298-1.911,0.893
		s-0.751,1.35-0.751,2.266v8.27h-4.475v-14.5h4.475v2.294h0.057c1.067-1.766,2.62-2.647,4.659-2.647c3.21,0,4.814,1.991,4.814,5.975
		V201.8z"/>
	<path fill="#0F519D" d="M629.064,201.8h-5.367l-4.631-7.193h-0.057v7.193h-4.475v-21.467h4.475v13.664h0.057l4.319-6.697h5.31
		l-5.196,6.811L629.064,201.8z"/>
	<path fill="#0F519D" d="M644.527,201.8h-4.46v-2.209h-0.071c-1.104,1.709-2.582,2.562-4.433,2.562c-3.36,0-5.041-2.034-5.041-6.103
		V187.3h4.461v8.354c0,2.049,0.812,3.073,2.436,3.073c0.803,0,1.444-0.281,1.926-0.843s0.723-1.324,0.723-2.287V187.3h4.46V201.8z"
		/>
	<path fill="#0F519D" d="M652.768,201.8h-4.475v-21.467h4.475V201.8z"/>
	<path fill="#0F519D" d="M665.301,201.63c-0.661,0.35-1.656,0.523-2.988,0.523c-3.152,0-4.729-1.638-4.729-4.913v-6.642h-2.352
		V187.3h2.352v-3.129l4.46-1.275v4.404h3.257v3.299h-3.257v5.863c0,1.51,0.6,2.266,1.798,2.266c0.473,0,0.959-0.138,1.459-0.411
		V201.63z"/>
	<path fill="#0F519D" d="M670.086,185.006c-0.755,0-1.373-0.225-1.854-0.673s-0.722-0.998-0.722-1.649
		c0-0.67,0.24-1.218,0.722-1.643s1.1-0.638,1.854-0.638c0.766,0,1.386,0.213,1.862,0.638s0.716,0.973,0.716,1.643
		c0,0.68-0.239,1.236-0.716,1.671S670.852,185.006,670.086,185.006z M672.295,201.8h-4.475v-14.5h4.475V201.8z"/>
	<path fill="#0F519D" d="M689.868,187.3l-5.395,14.5h-5.098l-5.141-14.5h4.786l2.521,8.936c0.283,1.01,0.448,1.869,0.496,2.576
		h0.057c0.065-0.67,0.24-1.5,0.523-2.492l2.577-9.02H689.868z"/>
	<path fill="#0F519D" d="M694.045,185.006c-0.755,0-1.373-0.225-1.854-0.673s-0.722-0.998-0.722-1.649
		c0-0.67,0.24-1.218,0.722-1.643s1.1-0.638,1.854-0.638c0.766,0,1.386,0.213,1.862,0.638s0.716,0.973,0.716,1.643
		c0,0.68-0.239,1.236-0.716,1.671S694.811,185.006,694.045,185.006z M696.254,201.8h-4.475v-14.5h4.475V201.8z"/>
	<path fill="#0F519D" d="M713.048,195.824h-9.459c0.151,2.105,1.478,3.157,3.979,3.157c1.596,0,2.997-0.377,4.206-1.133v3.229
		c-1.341,0.718-3.083,1.076-5.226,1.076c-2.341,0-4.158-0.648-5.452-1.946c-1.293-1.298-1.939-3.108-1.939-5.431
		c0-2.407,0.698-4.314,2.096-5.721s3.115-2.109,5.154-2.109c2.114,0,3.75,0.627,4.906,1.883s1.734,2.959,1.734,5.111V195.824z
		 M708.899,193.077c0-2.077-0.84-3.115-2.521-3.115c-0.718,0-1.338,0.297-1.862,0.893c-0.523,0.594-0.842,1.335-0.955,2.223H708.899
		z"/>
	<path fill="#0F519D" d="M725.169,191.335c-0.537-0.292-1.165-0.438-1.883-0.438c-0.973,0-1.732,0.356-2.279,1.069
		c-0.548,0.713-0.822,1.683-0.822,2.91v6.924h-4.475v-14.5h4.475v2.69h0.057c0.709-1.964,1.982-2.945,3.824-2.945
		c0.472,0,0.84,0.057,1.104,0.17V191.335z"/>
	<path fill="#0F519D" d="M741.028,201.8h-4.46v-2.209h-0.071c-1.104,1.709-2.582,2.562-4.433,2.562c-3.36,0-5.041-2.034-5.041-6.103
		V187.3h4.461v8.354c0,2.049,0.812,3.073,2.436,3.073c0.803,0,1.444-0.281,1.926-0.843s0.723-1.324,0.723-2.287V187.3h4.46V201.8z"
		/>
	<path fill="#0F519D" d="M758.8,201.8h-4.46v-8.057c0-2.247-0.803-3.371-2.408-3.371c-0.773,0-1.411,0.298-1.911,0.893
		s-0.751,1.35-0.751,2.266v8.27h-4.475v-14.5h4.475v2.294h0.057c1.067-1.766,2.62-2.647,4.659-2.647c3.21,0,4.814,1.991,4.814,5.975
		V201.8z"/>
	<path fill="#0F519D" d="M776.557,200.144c0,2.689-0.778,4.773-2.336,6.251s-3.813,2.216-6.769,2.216
		c-1.954,0-3.502-0.278-4.645-0.835v-3.767c1.491,0.868,2.997,1.303,4.517,1.303c1.511,0,2.682-0.398,3.512-1.196
		c0.831-0.798,1.246-1.881,1.246-3.25v-1.147h-0.057c-1.02,1.624-2.524,2.436-4.517,2.436c-1.851,0-3.318-0.65-4.403-1.953
		c-1.086-1.303-1.629-3.05-1.629-5.24c0-2.454,0.604-4.403,1.812-5.848s2.799-2.166,4.771-2.166c1.766,0,3.088,0.68,3.965,2.039
		h0.057V187.3h4.475V200.144z M772.139,194.833v-1.146c0-0.916-0.271-1.697-0.813-2.344s-1.249-0.971-2.117-0.971
		c-0.991,0-1.771,0.388-2.337,1.162c-0.566,0.773-0.85,1.864-0.85,3.271c0,1.208,0.27,2.164,0.808,2.867s1.274,1.056,2.209,1.056
		c0.925,0,1.673-0.356,2.244-1.069S772.139,196.004,772.139,194.833z"/>
</g>
</svg>
